<svg xmlns="http://www.w3.org/2000/svg" xmlns:xlink="http://www.w3.org/1999/xlink" width="500" zoomAndPan="magnify" viewBox="0 0 375 374.999991" height="500" preserveAspectRatio="xMidYMid meet" version="1.0"><defs><g/><clipPath id="444ae02903"><path d="M 113.03125 128 L 142 128 L 142 164 L 113.03125 164 Z M 113.03125 128 " clip-rule="nonzero"/></clipPath><clipPath id="9fd4cf0f08"><path d="M 144 92.660156 L 181 92.660156 L 181 136 L 144 136 Z M 144 92.660156 " clip-rule="nonzero"/></clipPath><clipPath id="72b72a744f"><path d="M 194 92.660156 L 231 92.660156 L 231 136 L 194 136 Z M 194 92.660156 " clip-rule="nonzero"/></clipPath></defs><rect x="-37.5" width="450" fill="#ffffff" y="-37.499999" height="449.999989" fill-opacity="1"/><rect x="-37.5" width="450" fill="#00040f" y="-37.499999" height="449.999989" fill-opacity="1"/><g clip-path="url(#444ae02903)"><path fill="#56aeff" d="M 141.402344 146.15625 C 141.402344 146.734375 141.378906 147.316406 141.332031 147.894531 C 141.289062 148.46875 141.21875 149.042969 141.128906 149.613281 C 141.039062 150.183594 140.925781 150.746094 140.789062 151.300781 C 140.65625 151.855469 140.5 152.402344 140.320312 152.941406 C 140.144531 153.476562 139.945312 154 139.726562 154.511719 C 139.507812 155.023438 139.269531 155.523438 139.011719 156.003906 C 138.753906 156.488281 138.476562 156.953125 138.183594 157.402344 C 137.886719 157.851562 137.574219 158.28125 137.246094 158.691406 C 136.917969 159.101562 136.574219 159.492188 136.214844 159.859375 C 135.855469 160.230469 135.484375 160.574219 135.097656 160.898438 C 134.710938 161.21875 134.3125 161.519531 133.902344 161.792969 C 133.492188 162.066406 133.074219 162.3125 132.644531 162.535156 C 132.214844 162.757812 131.78125 162.953125 131.335938 163.121094 C 130.890625 163.289062 130.441406 163.429688 129.984375 163.542969 C 129.527344 163.65625 129.070312 163.742188 128.609375 163.800781 C 128.144531 163.855469 127.683594 163.886719 127.21875 163.886719 C 126.753906 163.886719 126.289062 163.855469 125.828125 163.800781 C 125.363281 163.742188 124.90625 163.65625 124.449219 163.542969 C 123.996094 163.429688 123.542969 163.289062 123.101562 163.121094 C 122.65625 162.953125 122.21875 162.757812 121.789062 162.535156 C 121.359375 162.3125 120.941406 162.066406 120.53125 161.792969 C 120.121094 161.519531 119.722656 161.21875 119.335938 160.898438 C 118.949219 160.574219 118.578125 160.230469 118.21875 159.859375 C 117.859375 159.492188 117.515625 159.101562 117.1875 158.691406 C 116.859375 158.28125 116.546875 157.851562 116.253906 157.402344 C 115.957031 156.953125 115.683594 156.488281 115.421875 156.003906 C 115.164062 155.523438 114.925781 155.023438 114.707031 154.511719 C 114.488281 154 114.289062 153.476562 114.113281 152.941406 C 113.933594 152.402344 113.777344 151.855469 113.644531 151.300781 C 113.507812 150.746094 113.394531 150.183594 113.304688 149.613281 C 113.214844 149.042969 113.148438 148.46875 113.101562 147.894531 C 113.054688 147.316406 113.03125 146.734375 113.03125 146.15625 C 113.03125 145.574219 113.054688 144.996094 113.101562 144.417969 C 113.148438 143.839844 113.214844 143.265625 113.304688 142.695312 C 113.394531 142.125 113.507812 141.5625 113.644531 141.007812 C 113.777344 140.453125 113.933594 139.90625 114.113281 139.371094 C 114.289062 138.832031 114.488281 138.308594 114.707031 137.796875 C 114.925781 137.285156 115.164062 136.789062 115.421875 136.304688 C 115.683594 135.820312 115.957031 135.355469 116.253906 134.90625 C 116.546875 134.457031 116.859375 134.027344 117.1875 133.617188 C 117.515625 133.207031 117.859375 132.816406 118.21875 132.449219 C 118.578125 132.082031 118.949219 131.734375 119.335938 131.414062 C 119.722656 131.089844 120.121094 130.792969 120.53125 130.519531 C 120.941406 130.246094 121.359375 129.996094 121.789062 129.773438 C 122.21875 129.550781 122.65625 129.355469 123.101562 129.1875 C 123.542969 129.019531 123.996094 128.878906 124.449219 128.765625 C 124.90625 128.652344 125.363281 128.566406 125.828125 128.511719 C 126.289062 128.453125 126.753906 128.425781 127.21875 128.425781 C 127.683594 128.425781 128.144531 128.453125 128.609375 128.511719 C 129.070312 128.566406 129.527344 128.652344 129.984375 128.765625 C 130.441406 128.878906 130.890625 129.019531 131.335938 129.1875 C 131.78125 129.355469 132.214844 129.550781 132.644531 129.773438 C 133.074219 129.996094 133.492188 130.246094 133.902344 130.519531 C 134.3125 130.792969 134.710938 131.089844 135.097656 131.414062 C 135.484375 131.734375 135.855469 132.082031 136.214844 132.449219 C 136.574219 132.816406 136.917969 133.207031 137.246094 133.617188 C 137.574219 134.027344 137.886719 134.457031 138.183594 134.90625 C 138.476562 135.355469 138.753906 135.820312 139.011719 136.304688 C 139.269531 136.789062 139.507812 137.285156 139.726562 137.796875 C 139.945312 138.308594 140.144531 138.832031 140.320312 139.371094 C 140.5 139.90625 140.65625 140.453125 140.789062 141.007812 C 140.925781 141.5625 141.039062 142.125 141.128906 142.695312 C 141.21875 143.265625 141.289062 143.839844 141.332031 144.417969 C 141.378906 144.996094 141.402344 145.574219 141.402344 146.15625 Z M 141.402344 146.15625 " fill-opacity="1" fill-rule="nonzero"/></g><path fill="#56aeff" d="M 261.964844 146.15625 C 261.964844 146.734375 261.945312 147.316406 261.898438 147.894531 C 261.851562 148.46875 261.785156 149.042969 261.695312 149.613281 C 261.605469 150.183594 261.492188 150.746094 261.355469 151.300781 C 261.222656 151.855469 261.066406 152.402344 260.886719 152.941406 C 260.710938 153.476562 260.511719 154 260.292969 154.511719 C 260.074219 155.023438 259.835938 155.523438 259.578125 156.003906 C 259.316406 156.488281 259.042969 156.953125 258.746094 157.402344 C 258.453125 157.851562 258.140625 158.28125 257.8125 158.691406 C 257.484375 159.101562 257.140625 159.492188 256.78125 159.859375 C 256.421875 160.230469 256.050781 160.574219 255.664062 160.898438 C 255.277344 161.21875 254.878906 161.519531 254.46875 161.792969 C 254.058594 162.066406 253.640625 162.3125 253.210938 162.535156 C 252.78125 162.757812 252.34375 162.953125 251.898438 163.121094 C 251.457031 163.289062 251.003906 163.429688 250.550781 163.542969 C 250.09375 163.65625 249.636719 163.742188 249.171875 163.800781 C 248.710938 163.855469 248.246094 163.886719 247.78125 163.886719 C 247.316406 163.886719 246.855469 163.855469 246.390625 163.800781 C 245.929688 163.742188 245.472656 163.65625 245.015625 163.542969 C 244.558594 163.429688 244.109375 163.289062 243.664062 163.121094 C 243.21875 162.953125 242.785156 162.757812 242.355469 162.535156 C 241.925781 162.3125 241.507812 162.066406 241.097656 161.792969 C 240.6875 161.519531 240.289062 161.21875 239.902344 160.898438 C 239.515625 160.574219 239.144531 160.230469 238.785156 159.859375 C 238.425781 159.492188 238.082031 159.101562 237.753906 158.691406 C 237.425781 158.28125 237.113281 157.851562 236.816406 157.402344 C 236.523438 156.953125 236.246094 156.488281 235.988281 156.003906 C 235.730469 155.523438 235.492188 155.023438 235.273438 154.511719 C 235.054688 154 234.855469 153.476562 234.679688 152.941406 C 234.5 152.402344 234.34375 151.855469 234.210938 151.300781 C 234.074219 150.746094 233.960938 150.183594 233.871094 149.613281 C 233.78125 149.042969 233.710938 148.46875 233.667969 147.894531 C 233.621094 147.316406 233.597656 146.734375 233.597656 146.15625 C 233.597656 145.574219 233.621094 144.996094 233.667969 144.417969 C 233.710938 143.839844 233.78125 143.265625 233.871094 142.695312 C 233.960938 142.125 234.074219 141.5625 234.210938 141.007812 C 234.34375 140.453125 234.5 139.90625 234.679688 139.371094 C 234.855469 138.832031 235.054688 138.308594 235.273438 137.796875 C 235.492188 137.285156 235.730469 136.789062 235.988281 136.304688 C 236.246094 135.820312 236.523438 135.355469 236.816406 134.90625 C 237.113281 134.457031 237.425781 134.027344 237.753906 133.617188 C 238.082031 133.207031 238.425781 132.816406 238.785156 132.449219 C 239.144531 132.082031 239.515625 131.734375 239.902344 131.414062 C 240.289062 131.089844 240.6875 130.792969 241.097656 130.519531 C 241.507812 130.246094 241.925781 129.996094 242.355469 129.773438 C 242.785156 129.550781 243.21875 129.355469 243.664062 129.1875 C 244.109375 129.019531 244.558594 128.878906 245.015625 128.765625 C 245.472656 128.652344 245.929688 128.566406 246.390625 128.511719 C 246.855469 128.453125 247.316406 128.425781 247.78125 128.425781 C 248.246094 128.425781 248.710938 128.453125 249.171875 128.511719 C 249.636719 128.566406 250.09375 128.652344 250.550781 128.765625 C 251.003906 128.878906 251.457031 129.019531 251.898438 129.1875 C 252.34375 129.355469 252.78125 129.550781 253.210938 129.773438 C 253.640625 129.996094 254.058594 130.246094 254.46875 130.519531 C 254.878906 130.792969 255.277344 131.089844 255.664062 131.414062 C 256.050781 131.734375 256.421875 132.082031 256.78125 132.449219 C 257.140625 132.816406 257.484375 133.207031 257.8125 133.617188 C 258.140625 134.027344 258.453125 134.457031 258.746094 134.90625 C 259.042969 135.355469 259.316406 135.820312 259.578125 136.304688 C 259.835938 136.789062 260.074219 137.285156 260.292969 137.796875 C 260.511719 138.308594 260.710938 138.832031 260.886719 139.371094 C 261.066406 139.90625 261.222656 140.453125 261.355469 141.007812 C 261.492188 141.5625 261.605469 142.125 261.695312 142.695312 C 261.785156 143.265625 261.851562 143.839844 261.898438 144.417969 C 261.945312 144.996094 261.964844 145.574219 261.964844 146.15625 Z M 261.964844 146.15625 " fill-opacity="1" fill-rule="nonzero"/><g clip-path="url(#9fd4cf0f08)"><path fill="#56aeff" d="M 180.40625 114.242188 C 180.40625 114.9375 180.378906 115.632812 180.324219 116.324219 C 180.265625 117.019531 180.179688 117.707031 180.066406 118.390625 C 179.953125 119.074219 179.8125 119.75 179.644531 120.417969 C 179.476562 121.082031 179.28125 121.738281 179.058594 122.382812 C 178.835938 123.027344 178.589844 123.65625 178.3125 124.269531 C 178.039062 124.882812 177.742188 125.480469 177.417969 126.0625 C 177.097656 126.640625 176.75 127.199219 176.382812 127.738281 C 176.015625 128.277344 175.625 128.792969 175.214844 129.285156 C 174.804688 129.777344 174.375 130.246094 173.925781 130.6875 C 173.476562 131.128906 173.011719 131.542969 172.527344 131.929688 C 172.046875 132.316406 171.546875 132.675781 171.035156 133.003906 C 170.523438 133.332031 170 133.628906 169.460938 133.898438 C 168.925781 134.164062 168.378906 134.398438 167.824219 134.601562 C 167.269531 134.804688 166.707031 134.972656 166.136719 135.109375 C 165.566406 135.242188 164.992188 135.347656 164.414062 135.414062 C 163.835938 135.484375 163.257812 135.515625 162.675781 135.515625 C 162.097656 135.515625 161.519531 135.484375 160.941406 135.414062 C 160.363281 135.347656 159.789062 135.242188 159.21875 135.109375 C 158.648438 134.972656 158.085938 134.804688 157.53125 134.601562 C 156.976562 134.398438 156.429688 134.164062 155.894531 133.898438 C 155.355469 133.628906 154.832031 133.332031 154.320312 133.003906 C 153.808594 132.675781 153.308594 132.316406 152.828125 131.929688 C 152.34375 131.542969 151.878906 131.128906 151.429688 130.6875 C 150.980469 130.246094 150.550781 129.777344 150.140625 129.285156 C 149.730469 128.792969 149.339844 128.277344 148.972656 127.738281 C 148.605469 127.199219 148.257812 126.640625 147.9375 126.0625 C 147.613281 125.480469 147.316406 124.882812 147.042969 124.269531 C 146.765625 123.65625 146.519531 123.027344 146.296875 122.382812 C 146.074219 121.738281 145.878906 121.082031 145.710938 120.417969 C 145.542969 119.75 145.402344 119.074219 145.289062 118.390625 C 145.175781 117.707031 145.089844 117.019531 145.03125 116.324219 C 144.976562 115.632812 144.949219 114.9375 144.949219 114.242188 C 144.949219 113.542969 144.976562 112.847656 145.03125 112.15625 C 145.089844 111.460938 145.175781 110.773438 145.289062 110.089844 C 145.402344 109.40625 145.542969 108.730469 145.710938 108.0625 C 145.878906 107.398438 146.074219 106.742188 146.296875 106.097656 C 146.519531 105.453125 146.765625 104.824219 147.042969 104.210938 C 147.316406 103.597656 147.613281 103 147.9375 102.421875 C 148.257812 101.839844 148.605469 101.28125 148.972656 100.742188 C 149.339844 100.203125 149.730469 99.6875 150.140625 99.195312 C 150.550781 98.703125 150.980469 98.234375 151.429688 97.792969 C 151.878906 97.351562 152.34375 96.9375 152.828125 96.550781 C 153.308594 96.164062 153.808594 95.804688 154.320312 95.476562 C 154.832031 95.148438 155.355469 94.851562 155.894531 94.582031 C 156.429688 94.316406 156.976562 94.082031 157.53125 93.878906 C 158.085938 93.679688 158.648438 93.507812 159.21875 93.375 C 159.789062 93.238281 160.363281 93.136719 160.941406 93.066406 C 161.519531 93 162.097656 92.964844 162.675781 92.964844 C 163.257812 92.964844 163.835938 93 164.414062 93.066406 C 164.992188 93.136719 165.566406 93.238281 166.136719 93.375 C 166.707031 93.507812 167.269531 93.679688 167.824219 93.878906 C 168.378906 94.082031 168.925781 94.316406 169.460938 94.582031 C 170 94.851562 170.523438 95.148438 171.035156 95.476562 C 171.546875 95.804688 172.046875 96.164062 172.527344 96.550781 C 173.011719 96.9375 173.476562 97.351562 173.925781 97.792969 C 174.375 98.234375 174.804688 98.703125 175.214844 99.195312 C 175.625 99.6875 176.015625 100.203125 176.382812 100.742188 C 176.75 101.28125 177.097656 101.839844 177.417969 102.421875 C 177.742188 103 178.039062 103.597656 178.3125 104.210938 C 178.589844 104.824219 178.835938 105.453125 179.058594 106.097656 C 179.28125 106.742188 179.476562 107.398438 179.644531 108.0625 C 179.8125 108.730469 179.953125 109.40625 180.066406 110.089844 C 180.179688 110.773438 180.265625 111.460938 180.324219 112.15625 C 180.378906 112.847656 180.40625 113.542969 180.40625 114.242188 Z M 180.40625 114.242188 " fill-opacity="1" fill-rule="nonzero"/></g><g clip-path="url(#72b72a744f)"><path fill="#56aeff" d="M 230.050781 114.242188 C 230.050781 114.9375 230.023438 115.632812 229.96875 116.324219 C 229.910156 117.019531 229.824219 117.707031 229.710938 118.390625 C 229.597656 119.074219 229.457031 119.75 229.289062 120.417969 C 229.121094 121.082031 228.925781 121.738281 228.703125 122.382812 C 228.480469 123.027344 228.234375 123.65625 227.957031 124.269531 C 227.683594 124.882812 227.386719 125.480469 227.0625 126.0625 C 226.742188 126.640625 226.394531 127.199219 226.027344 127.738281 C 225.660156 128.277344 225.269531 128.792969 224.859375 129.285156 C 224.449219 129.777344 224.019531 130.246094 223.570312 130.6875 C 223.121094 131.128906 222.65625 131.542969 222.171875 131.929688 C 221.691406 132.316406 221.191406 132.675781 220.679688 133.003906 C 220.167969 133.332031 219.644531 133.628906 219.105469 133.898438 C 218.570312 134.164062 218.023438 134.398438 217.46875 134.601562 C 216.914062 134.804688 216.351562 134.972656 215.78125 135.109375 C 215.210938 135.242188 214.636719 135.347656 214.058594 135.414062 C 213.480469 135.484375 212.902344 135.515625 212.320312 135.515625 C 211.742188 135.515625 211.164062 135.484375 210.585938 135.414062 C 210.007812 135.347656 209.433594 135.242188 208.863281 135.109375 C 208.292969 134.972656 207.730469 134.804688 207.175781 134.601562 C 206.621094 134.398438 206.074219 134.164062 205.539062 133.898438 C 205 133.628906 204.476562 133.332031 203.964844 133.003906 C 203.453125 132.675781 202.953125 132.316406 202.472656 131.929688 C 201.988281 131.542969 201.523438 131.128906 201.074219 130.6875 C 200.625 130.246094 200.195312 129.777344 199.785156 129.285156 C 199.375 128.792969 198.984375 128.277344 198.617188 127.738281 C 198.25 127.199219 197.902344 126.640625 197.582031 126.0625 C 197.257812 125.480469 196.960938 124.882812 196.6875 124.269531 C 196.410156 123.65625 196.164062 123.027344 195.941406 122.382812 C 195.71875 121.738281 195.523438 121.082031 195.355469 120.417969 C 195.1875 119.75 195.046875 119.074219 194.933594 118.390625 C 194.820312 117.707031 194.734375 117.019531 194.675781 116.324219 C 194.621094 115.632812 194.59375 114.9375 194.59375 114.242188 C 194.59375 113.542969 194.621094 112.847656 194.675781 112.15625 C 194.734375 111.460938 194.820312 110.773438 194.933594 110.089844 C 195.046875 109.40625 195.1875 108.730469 195.355469 108.0625 C 195.523438 107.398438 195.71875 106.742188 195.941406 106.097656 C 196.164062 105.453125 196.410156 104.824219 196.6875 104.210938 C 196.960938 103.597656 197.257812 103 197.582031 102.421875 C 197.902344 101.839844 198.25 101.28125 198.617188 100.742188 C 198.984375 100.203125 199.375 99.6875 199.785156 99.195312 C 200.195312 98.703125 200.625 98.234375 201.074219 97.792969 C 201.523438 97.351562 201.988281 96.9375 202.472656 96.550781 C 202.953125 96.164062 203.453125 95.804688 203.964844 95.476562 C 204.476562 95.148438 205 94.851562 205.539062 94.582031 C 206.074219 94.316406 206.621094 94.082031 207.175781 93.878906 C 207.730469 93.679688 208.292969 93.507812 208.863281 93.375 C 209.433594 93.238281 210.007812 93.136719 210.585938 93.066406 C 211.164062 93 211.742188 92.964844 212.320312 92.964844 C 212.902344 92.964844 213.480469 93 214.058594 93.066406 C 214.636719 93.136719 215.210938 93.238281 215.78125 93.375 C 216.351562 93.507812 216.914062 93.679688 217.46875 93.878906 C 218.023438 94.082031 218.570312 94.316406 219.105469 94.582031 C 219.644531 94.851562 220.167969 95.148438 220.679688 95.476562 C 221.191406 95.804688 221.691406 96.164062 222.171875 96.550781 C 222.65625 96.9375 223.121094 97.351562 223.570312 97.792969 C 224.019531 98.234375 224.449219 98.703125 224.859375 99.195312 C 225.269531 99.6875 225.660156 100.203125 226.027344 100.742188 C 226.394531 101.28125 226.742188 101.839844 227.0625 102.421875 C 227.386719 103 227.683594 103.597656 227.957031 104.210938 C 228.234375 104.824219 228.480469 105.453125 228.703125 106.097656 C 228.925781 106.742188 229.121094 107.398438 229.289062 108.0625 C 229.457031 108.730469 229.597656 109.40625 229.710938 110.089844 C 229.824219 110.773438 229.910156 111.460938 229.96875 112.15625 C 230.023438 112.847656 230.050781 113.542969 230.050781 114.242188 Z M 230.050781 114.242188 " fill-opacity="1" fill-rule="nonzero"/></g><path fill="#56aeff" d="M 187.480469 142.609375 C 165.347656 142.609375 144.003906 163.675781 136.921875 183.195312 C 132.089844 196.519531 134.035156 208.101562 142.265625 214.976562 C 147.238281 219.132812 151.746094 220.648438 155.898438 220.648438 C 161.945312 220.648438 167.246094 217.429688 172.15625 214.445312 C 177.175781 211.390625 181.921875 208.5 187.5 208.5 C 193.078125 208.5 197.824219 211.390625 202.84375 214.445312 C 211.128906 219.484375 220.511719 225.191406 232.734375 214.976562 C 240.964844 208.101562 242.910156 196.519531 238.074219 183.195312 C 230.996094 163.679688 209.652344 142.609375 187.480469 142.609375 Z M 187.480469 142.609375 " fill-opacity="1" fill-rule="nonzero"/><g fill="#ffffff" fill-opacity="1"><g transform="translate(46.239063, 289.567529)"><g><path d="M 34.082031 -27.390625 C 34.082031 -35.9375 27.75 -40.3125 19.667969 -40.3125 L 4.683594 -40.3125 L 4.683594 0 L 13.023438 0 L 13.023438 -14.210938 L 19.359375 -14.210938 C 27.800781 -14.210938 34.082031 -18.484375 34.082031 -27.390625 Z M 25.691406 -27.183594 C 25.691406 -23.425781 22.292969 -21.984375 18.996094 -21.984375 L 13.023438 -21.984375 L 13.023438 -32.433594 L 18.945312 -32.433594 C 22.394531 -32.433594 25.691406 -31.097656 25.691406 -27.183594 Z M 25.691406 -27.183594 "/></g></g></g><g fill="#ffffff" fill-opacity="1"><g transform="translate(81.865874, 289.567529)"><g><path d="M 8.339844 0 L 11.328125 -8.132812 L 29.191406 -8.132812 L 32.230469 0 L 40.828125 0 L 25.382812 -40.3125 L 15.34375 -40.3125 L -0.0507812 0 Z M 20.285156 -32.230469 L 26.359375 -15.855469 L 14.210938 -15.855469 Z M 20.285156 -32.230469 "/></g></g></g><g fill="#ffffff" fill-opacity="1"><g transform="translate(122.641078, 289.567529)"><g><path d="M 21.777344 0 L 30.582031 -29.242188 L 30.683594 -29.242188 L 39.4375 0 L 48.445312 0 L 60.390625 -40.3125 L 51.792969 -40.3125 L 43.863281 -11.480469 L 35.164062 -40.3125 L 26.257812 -40.3125 L 17.554688 -11.6875 L 9.886719 -40.3125 L 0.976562 -40.3125 L 12.820312 0 Z M 21.777344 0 "/></g></g></g><g fill="#ffffff" fill-opacity="1"><g transform="translate(183.958332, 289.567529)"><g><path d="M 24.402344 -8.289062 C 24.402344 -13.28125 20.386719 -15.855469 13.796875 -17.246094 C 11.070312 -17.8125 10.195312 -18.6875 10.195312 -19.769531 C 10.195312 -20.851562 11.378906 -21.777344 13.078125 -21.777344 C 15.597656 -21.777344 17.144531 -20.746094 18.070312 -19.152344 L 23.886719 -22.601562 C 22.191406 -25.84375 18.535156 -28.160156 13.28125 -28.160156 C 7.722656 -28.160156 2.730469 -24.710938 2.730469 -19.460938 C 2.730469 -14.003906 7.414062 -11.6875 12.511719 -10.554688 C 16.320312 -9.730469 16.886719 -8.804688 16.886719 -7.878906 C 16.886719 -6.847656 15.597656 -5.871094 13.539062 -5.871094 C 10.503906 -5.871094 8.339844 -7.257812 7.363281 -9.214844 L 1.441406 -5.714844 C 3.449219 -1.90625 7 0.617188 13.4375 0.617188 C 20.335938 0.617188 24.402344 -3.140625 24.402344 -8.289062 Z M 24.402344 -8.289062 "/></g></g></g><g fill="#ffffff" fill-opacity="1"><g transform="translate(210.318056, 289.567529)"><g><path d="M 2.730469 -37.066406 C 2.730469 -34.339844 4.992188 -32.125 7.671875 -32.125 C 10.503906 -32.125 12.714844 -34.339844 12.714844 -37.066406 C 12.714844 -39.847656 10.503906 -42.0625 7.671875 -42.0625 C 4.992188 -42.0625 2.730469 -39.847656 2.730469 -37.066406 Z M 3.707031 0 L 3.707031 -27.492188 L 11.789062 -27.492188 L 11.789062 0 Z M 3.707031 0 "/></g></g></g><g fill="#ffffff" fill-opacity="1"><g transform="translate(225.81469, 289.567529)"><g><path d="M 20.695312 -0.15625 L 20.695312 -6.796875 C 20.027344 -6.640625 19.253906 -6.589844 18.84375 -6.589844 C 15.804688 -6.589844 14.054688 -7.722656 14.054688 -10.964844 L 14.054688 -20.542969 L 20.851562 -20.542969 L 20.851562 -27.492188 L 14.054688 -27.492188 L 14.054688 -36.089844 L 6.125 -36.089844 L 6.125 -27.492188 L 1.082031 -27.492188 L 1.082031 -20.542969 L 6.023438 -20.542969 L 6.023438 -9.988281 C 6.023438 -3.707031 9.628906 0.359375 16.9375 0.359375 C 18.171875 0.359375 19.304688 0.257812 20.695312 -0.15625 Z M 20.695312 -0.15625 "/></g></g></g><g fill="#ffffff" fill-opacity="1"><g transform="translate(248.982409, 289.567529)"><g><path d="M 2.730469 -37.066406 C 2.730469 -34.339844 4.992188 -32.125 7.671875 -32.125 C 10.503906 -32.125 12.714844 -34.339844 12.714844 -37.066406 C 12.714844 -39.847656 10.503906 -42.0625 7.671875 -42.0625 C 4.992188 -42.0625 2.730469 -39.847656 2.730469 -37.066406 Z M 3.707031 0 L 3.707031 -27.492188 L 11.789062 -27.492188 L 11.789062 0 Z M 3.707031 0 "/></g></g></g><g fill="#ffffff" fill-opacity="1"><g transform="translate(264.479043, 289.567529)"><g><path d="M 0.722656 -27.492188 L 11.839844 0 L 20.027344 0 L 31.300781 -27.492188 L 22.808594 -27.492188 L 16.011719 -9.164062 L 9.214844 -27.492188 Z M 0.722656 -27.492188 "/></g></g></g><g fill="#ffffff" fill-opacity="1"><g transform="translate(296.450504, 289.567529)"><g><path d="M 10.195312 -11.53125 L 30.167969 -11.53125 C 30.273438 -12.460938 30.273438 -13.4375 30.273438 -14.414062 C 30.273438 -22.550781 24.765625 -28.160156 16.578125 -28.160156 C 8.648438 -28.160156 2.007812 -21.726562 2.007812 -13.796875 C 2.007812 -5.25 8.753906 0.617188 17.09375 0.617188 C 22.652344 0.617188 26.617188 -1.441406 28.933594 -5.613281 L 23.117188 -9.421875 C 21.878906 -7.363281 19.304688 -6.125 16.988281 -6.125 C 13.644531 -6.125 10.707031 -8.082031 10.195312 -11.53125 Z M 22.242188 -16.835938 L 10.398438 -16.835938 C 10.707031 -18.636719 12.769531 -21.625 16.371094 -21.625 C 20.386719 -21.625 22.085938 -18.84375 22.242188 -16.835938 Z M 22.242188 -16.835938 "/></g></g></g></svg>